<svg xmlns="http://www.w3.org/2000/svg" viewBox="0 0 680 750" width="100%" role="img">
  <title>五层分层技术架构图</title>
  <desc>CCF ModelEngine 五层技术架构：基础设施→算子执行→协议桥梁→智能体编排→应用展示</desc>
  <defs>
    <marker id="arrow" viewBox="0 0 10 10" refX="8" refY="5" markerWidth="6" markerHeight="6" orient="auto-start-reverse">
      <path d="M2 1L8 5L2 9" fill="none" stroke="context-stroke" stroke-width="1.5" stroke-linecap="round" stroke-linejoin="round"/>
    </marker>
  </defs>

  <!-- Title -->
  <text class="th" x="340" y="28" text-anchor="middle" fill="#26215C" font-size="15">CCF ModelEngine -- 五层分层技术架构</text>

  <!-- Layer 4: Application -->
  <rect x="40" y="42" width="600" height="110" rx="12" fill="#EEEDFE" stroke="#534AB7" stroke-width="0.5"/>
  <text class="th" x="60" y="60" fill="#3C3489" font-size="13">Layer 4: 应用展示层</text>

  <g>
    <rect x="60" y="72" width="130" height="36" rx="6" fill="#CECBF6" stroke="#AFA9EC" stroke-width="0.5"/>
    <text class="th" x="125" y="90" text-anchor="middle" fill="#3C3489" font-size="11">CLI Demo</text>
    <text class="ts" x="125" y="103" text-anchor="middle" fill="#534AB7" font-size="10">run_demo.py</text>
  </g>
  <g>
    <rect x="210" y="72" width="130" height="36" rx="6" fill="#CECBF6" stroke="#AFA9EC" stroke-width="0.5"/>
    <text class="th" x="275" y="90" text-anchor="middle" fill="#3C3489" font-size="11">HTML/ECharts</text>
    <text class="ts" x="275" y="103" text-anchor="middle" fill="#534AB7" font-size="10">kg_visualize</text>
  </g>
  <g>
    <rect x="360" y="72" width="130" height="36" rx="6" fill="#CECBF6" stroke="#AFA9EC" stroke-width="0.5"/>
    <text class="th" x="425" y="90" text-anchor="middle" fill="#3C3489" font-size="11">Markdown Report</text>
    <text class="ts" x="425" y="103" text-anchor="middle" fill="#534AB7" font-size="10">kg_report</text>
  </g>
  <g>
    <rect x="510" y="72" width="115" height="36" rx="6" fill="#CECBF6" stroke="#AFA9EC" stroke-width="0.5"/>
    <text class="th" x="567" y="90" text-anchor="middle" fill="#3C3489" font-size="11">Nexent Web</text>
    <text class="ts" x="567" y="103" text-anchor="middle" fill="#534AB7" font-size="10">localhost:3000</text>
  </g>

  <text class="ts" x="340" y="130" text-anchor="middle" fill="#534AB7" font-size="11">交互式图表 (bar/pie/graph/line) · 洞察报告 (8条规则+置信度) · 一键ETL CLI · Web控制台</text>

  <!-- Inter-layer arrow L4-L3 -->
  <line x1="340" y1="155" x2="340" y2="192" stroke="#D85A30" stroke-width="1.5" marker-end="url(#arrow)"/>

  <!-- Layer 3: Agent -->
  <rect x="40" y="195" width="600" height="110" rx="12" fill="#E1F5EE" stroke="#0F6E56" stroke-width="0.5"/>
  <text class="th" x="60" y="213" fill="#085041" font-size="13">Layer 3: 智能体编排层</text>

  <g>
    <rect x="60" y="225" width="175" height="40" rx="6" fill="#9FE1CB" stroke="#5DCAA5" stroke-width="0.5"/>
    <text class="th" x="147" y="241" text-anchor="middle" fill="#085041" font-size="11">Task 1: ETL Agent</text>
    <text class="ts" x="147" y="256" text-anchor="middle" fill="#0F6E56" font-size="10">Pipeline模式 · 4步自动编排</text>
  </g>
  <g>
    <rect x="252" y="225" width="175" height="40" rx="6" fill="#9FE1CB" stroke="#5DCAA5" stroke-width="0.5"/>
    <text class="th" x="339" y="241" text-anchor="middle" fill="#085041" font-size="11">Task 2: KG QA Agent</text>
    <text class="ts" x="339" y="256" text-anchor="middle" fill="#0F6E56" font-size="10">双代理+自验证 · 5步推理链</text>
  </g>
  <g>
    <rect x="445" y="225" width="175" height="40" rx="6" fill="#9FE1CB" stroke="#5DCAA5" stroke-width="0.5"/>
    <text class="th" x="532" y="241" text-anchor="middle" fill="#085041" font-size="11">Task 3: Analysis Agent</text>
    <text class="ts" x="532" y="256" text-anchor="middle" fill="#0F6E56" font-size="10">单体+4条分析路径</text>
  </g>

  <text class="ts" x="340" y="285" text-anchor="middle" fill="#0F6E56" font-size="11">deepseek-v4-flash · Harness Engineering 方法论 · 工具调用式编排 · import.json 一键导入</text>

  <!-- Inter-layer arrow L3-L2 -->
  <line x1="340" y1="308" x2="340" y2="345" stroke="#D85A30" stroke-width="1.5" marker-end="url(#arrow)"/>

  <!-- Layer 2: Protocol -->
  <rect x="40" y="348" width="600" height="90" rx="12" fill="#FAEEDA" stroke="#BA7517" stroke-width="0.5"/>
  <text class="th" x="60" y="366" fill="#633806" font-size="13">Layer 2: 协议桥梁层 (MCP Server v3.0)</text>

  <g>
    <rect x="60" y="378" width="90" height="32" rx="6" fill="#FAC775" stroke="#EF9F27" stroke-width="0.5"/>
    <text class="ts" x="105" y="394" text-anchor="middle" fill="#633806" font-size="10">连接验证</text>
  </g>
  <g>
    <rect x="162" y="378" width="90" height="32" rx="6" fill="#FAC775" stroke="#EF9F27" stroke-width="0.5"/>
    <text class="ts" x="207" y="394" text-anchor="middle" fill="#633806" font-size="10">ETL流水线</text>
  </g>
  <g>
    <rect x="264" y="378" width="90" height="32" rx="6" fill="#FAC775" stroke="#EF9F27" stroke-width="0.5"/>
    <text class="ts" x="309" y="394" text-anchor="middle" fill="#633806" font-size="10">KG搜索</text>
  </g>
  <g>
    <rect x="366" y="378" width="90" height="32" rx="6" fill="#FAC775" stroke="#EF9F27" stroke-width="0.5"/>
    <text class="ts" x="411" y="394" text-anchor="middle" fill="#633806" font-size="10">统计分析</text>
  </g>
  <g>
    <rect x="468" y="378" width="78" height="32" rx="6" fill="#FAC775" stroke="#EF9F27" stroke-width="0.5"/>
    <text class="ts" x="507" y="394" text-anchor="middle" fill="#633806" font-size="10">可视化</text>
  </g>
  <g>
    <rect x="558" y="378" width="67" height="32" rx="6" fill="#FAC775" stroke="#EF9F27" stroke-width="0.5"/>
    <text class="ts" x="591" y="394" text-anchor="middle" fill="#633806" font-size="10">报告</text>
  </g>

  <text class="ts" x="340" y="426" text-anchor="middle" fill="#854F0B" font-size="11">FastMCP · SSE协议 · http://host.docker.internal:8089 · 算子列表/执行管理</text>

  <!-- Inter-layer arrow L2-L1 -->
  <line x1="340" y1="440" x2="340" y2="477" stroke="#D85A30" stroke-width="1.5" marker-end="url(#arrow)"/>

  <!-- Layer 1: Operator -->
  <rect x="40" y="480" width="600" height="90" rx="12" fill="#E6F1FB" stroke="#378ADD" stroke-width="0.5"/>
  <text class="th" x="60" y="498" fill="#0C447C" font-size="13">Layer 1: 算子执行层 (7 Operators)</text>

  <g>
    <rect x="60" y="510" width="72" height="32" rx="6" fill="#B5D4F4" stroke="#85B7EB" stroke-width="0.5"/>
    <text class="ts" x="96" y="526" text-anchor="middle" fill="#0C447C" font-size="10">data_loader</text>
  </g>
  <text x="138" y="526" fill="#888780" font-size="11" dominant-baseline="central">→</text>
  <g>
    <rect x="150" y="510" width="76" height="32" rx="6" fill="#B5D4F4" stroke="#85B7EB" stroke-width="0.5"/>
    <text class="ts" x="188" y="526" text-anchor="middle" fill="#0C447C" font-size="10">data_cleaner</text>
  </g>
  <text x="232" y="526" fill="#888780" font-size="11" dominant-baseline="central">→</text>
  <g>
    <rect x="244" y="510" width="82" height="32" rx="6" fill="#B5D4F4" stroke="#85B7EB" stroke-width="0.5"/>
    <text class="ts" x="285" y="526" text-anchor="middle" fill="#0C447C" font-size="10">transformer</text>
  </g>
  <text x="332" y="526" fill="#888780" font-size="11" dominant-baseline="central">→</text>
  <g>
    <rect x="344" y="510" width="78" height="32" rx="6" fill="#B5D4F4" stroke="#85B7EB" stroke-width="0.5"/>
    <text class="ts" x="383" y="526" text-anchor="middle" fill="#0C447C" font-size="10">data_exporter</text>
  </g>

  <g>
    <rect x="435" y="510" width="88" height="32" rx="6" fill="#B5D4F4" stroke="#85B7EB" stroke-width="0.5"/>
    <text class="ts" x="479" y="526" text-anchor="middle" fill="#0C447C" font-size="10">kg_entity</text>
  </g>
  <g>
    <rect x="530" y="510" width="95" height="32" rx="6" fill="#B5D4F4" stroke="#85B7EB" stroke-width="0.5"/>
    <text class="ts" x="577" y="526" text-anchor="middle" fill="#0C447C" font-size="10">kg_relation+triple</text>
  </g>

  <text class="ts" x="340" y="558" text-anchor="middle" fill="#185FA5" font-size="11">Mapper基类 · 纯规则引擎(33.5μs/条) · metadata.yml规范 · ZIP打包上传 · Ray分布式</text>

  <!-- Inter-layer arrow L1-L0 -->
  <line x1="340" y1="572" x2="340" y2="609" stroke="#D85A30" stroke-width="1.5" marker-end="url(#arrow)"/>

  <!-- Layer 0: Infrastructure -->
  <rect x="40" y="612" width="600" height="100" rx="12" fill="#F1EFE8" stroke="#888780" stroke-width="0.5"/>
  <text class="th" x="60" y="630" fill="#444441" font-size="13">Layer 0: 基础设施层</text>

  <g>
    <rect x="60" y="642" width="175" height="42" rx="6" fill="#D3D1C7" stroke="#B4B2A9" stroke-width="0.5"/>
    <text class="th" x="147" y="658" text-anchor="middle" fill="#444441" font-size="11">Windows 11 + WSL2</text>
    <text class="ts" x="147" y="674" text-anchor="middle" fill="#5F5E5A" font-size="10">宿主机</text>
  </g>
  <g>
    <rect x="250" y="642" width="175" height="42" rx="6" fill="#D3D1C7" stroke="#B4B2A9" stroke-width="0.5"/>
    <text class="th" x="337" y="658" text-anchor="middle" fill="#444441" font-size="11">Docker Desktop</text>
    <text class="ts" x="337" y="674" text-anchor="middle" fill="#5F5E5A" font-size="10">15 个容器</text>
  </g>
  <g>
    <rect x="440" y="642" width="185" height="42" rx="6" fill="#D3D1C7" stroke="#B4B2A9" stroke-width="0.5"/>
    <text class="th" x="532" y="658" text-anchor="middle" fill="#444441" font-size="11">MCP Server (宿主机)</text>
    <text class="ts" x="532" y="674" text-anchor="middle" fill="#5F5E5A" font-size="10">localhost:8089</text>
  </g>

  <text class="ts" x="340" y="702" text-anchor="middle" fill="#5F5E5A" font-size="11">Nexent(11服务)+DataMate(6服务) · PostgreSQL · Elasticsearch · Redis · MinIO · Ray</text>

  <!-- Legend -->
  <g>
    <rect x="260" y="720" width="12" height="12" rx="3" fill="#D85A30"/>
    <text class="ts" x="278" y="729" fill="#5F5E5A" font-size="11">API调用/数据流</text>
  </g>
</svg>
