<svg xmlns="http://www.w3.org/2000/svg" viewBox="0 0 680 680" width="100%" role="img">
  <title>测试体系全景图</title>
  <desc>CCF ModelEngine 全部测试用例覆盖：ETL 148例 + KG 10例 + Task3 96例 + E2E 15例 = 269例 100%通过</desc>
  <defs>
    <marker id="arrow" viewBox="0 0 10 10" refX="8" refY="5" markerWidth="6" markerHeight="6" orient="auto-start-reverse">
      <path d="M2 1L8 5L2 9" fill="none" stroke="context-stroke" stroke-width="1.5" stroke-linecap="round" stroke-linejoin="round"/>
    </marker>
  </defs>

  <text class="th" x="340" y="26" text-anchor="middle" fill="#27500A" font-size="15">测试体系全景 -- 269+ 用例 · 100% 通过</text>

  <!-- ===== ETL Tests ===== -->
  <g class="c-purple">
    <rect x="40" y="42" width="600" height="180" rx="10" fill="#EEEDFE" stroke="#534AB7" stroke-width="0.5"/>
    <text class="th" x="340" y="60" text-anchor="middle" fill="#26215C" font-size="13">Task 1: ETL 算子测试 (148 用例)</text>

    <!-- DataLoader -->
    <rect x="55" y="70" width="135" height="140" rx="8" fill="#CECBF6" stroke="#AFA9EC" stroke-width="0.3"/>
    <text class="th" x="122" y="88" text-anchor="middle" fill="#3C3489" font-size="11">DataLoader</text>
    <text class="ts" x="122" y="102" text-anchor="middle" fill="#534AB7" font-size="9">15 用例</text>
    <line x1="65" y1="110" x2="180" y2="110" stroke="#AFA9EC" stroke-width="0.3"/>
    <text class="ts" x="65" y="124" fill="#534AB7" font-size="9">· 功能正确性 (4)</text>
    <text class="ts" x="65" y="138" fill="#534AB7" font-size="9">· 编码兼容 (2)</text>
    <text class="ts" x="65" y="152" fill="#534AB7" font-size="9">· 合并策略 (2)</text>
    <text class="ts" x="65" y="166" fill="#534AB7" font-size="9">· 容错降级 (3)</text>
    <text class="ts" x="65" y="180" fill="#534AB7" font-size="9">· 分块处理 (1)</text>
    <text class="ts" x="65" y="194" fill="#534AB7" font-size="9">· 质量评分 (1)</text>
    <text class="ts" x="65" y="208" fill="#534AB7" font-size="9">· 边界 (2)</text>

    <!-- DataCleaner -->
    <rect x="200" y="70" width="135" height="140" rx="8" fill="#CECBF6" stroke="#AFA9EC" stroke-width="0.3"/>
    <text class="th" x="267" y="88" text-anchor="middle" fill="#3C3489" font-size="11">DataCleaner</text>
    <text class="ts" x="267" y="102" text-anchor="middle" fill="#534AB7" font-size="9">39 用例</text>
    <line x1="210" y1="110" x2="325" y2="110" stroke="#AFA9EC" stroke-width="0.3"/>
    <text class="ts" x="210" y="124" fill="#534AB7" font-size="9">· 去空格 (5)</text>
    <text class="ts" x="210" y="138" fill="#534AB7" font-size="9">· 去重 (5)</text>
    <text class="ts" x="210" y="152" fill="#534AB7" font-size="9">· 空值处理 (5)</text>
    <text class="ts" x="210" y="166" fill="#534AB7" font-size="9">· 隐私脱敏 (7)</text>
    <text class="ts" x="210" y="180" fill="#534AB7" font-size="9">· 格式标准化 (5)</text>
    <text class="ts" x="210" y="194" fill="#534AB7" font-size="9">· 异常 (3)+集成(7)</text>
    <text class="ts" x="210" y="208" fill="#534AB7" font-size="9">· 报告(3)+边界(5)</text>

    <!-- DataTransformer -->
    <rect x="345" y="70" width="135" height="140" rx="8" fill="#CECBF6" stroke="#AFA9EC" stroke-width="0.3"/>
    <text class="th" x="412" y="88" text-anchor="middle" fill="#3C3489" font-size="11">Transformer</text>
    <text class="ts" x="412" y="102" text-anchor="middle" fill="#534AB7" font-size="9">59 用例</text>
    <line x1="355" y1="110" x2="470" y2="110" stroke="#AFA9EC" stroke-width="0.3"/>
    <text class="ts" x="355" y="124" fill="#534AB7" font-size="9">· 单元测试 (30)</text>
    <text class="ts" x="355" y="138" fill="#534AB7" font-size="9">· 集成测试 (8)</text>
    <text class="ts" x="355" y="152" fill="#534AB7" font-size="9">· 边界测试 (6)</text>
    <text class="ts" x="355" y="166" fill="#534AB7" font-size="9">· 异常测试 (5)</text>
    <text class="ts" x="355" y="180" fill="#534AB7" font-size="9">· E2E (3)</text>
    <text class="ts" x="355" y="194" fill="#534AB7" font-size="9">· 性能 (3)</text>
    <text class="ts" x="355" y="208" fill="#534AB7" font-size="9">· 补充 (4)</text>

    <!-- DataExporter -->
    <rect x="490" y="70" width="135" height="140" rx="8" fill="#CECBF6" stroke="#AFA9EC" stroke-width="0.3"/>
    <text class="th" x="557" y="88" text-anchor="middle" fill="#3C3489" font-size="11">DataExporter</text>
    <text class="ts" x="557" y="102" text-anchor="middle" fill="#534AB7" font-size="9">35 用例</text>
    <line x1="500" y1="110" x2="615" y2="110" stroke="#AFA9EC" stroke-width="0.3"/>
    <text class="ts" x="500" y="124" fill="#534AB7" font-size="9">· CSV导出 (4)</text>
    <text class="ts" x="500" y="138" fill="#534AB7" font-size="9">· JSON (2)</text>
    <text class="ts" x="500" y="152" fill="#534AB7" font-size="9">· JSONL (2)</text>
    <text class="ts" x="500" y="166" fill="#534AB7" font-size="9">· 边界 (5)</text>
    <text class="ts" x="500" y="180" fill="#534AB7" font-size="9">· 异常 (5)</text>
    <text class="ts" x="500" y="194" fill="#534AB7" font-size="9">· 集成 (7)</text>
    <text class="ts" x="500" y="208" fill="#534AB7" font-size="9">· E2E(4)+性能(4)</text>
  </g>

  <!-- ===== KG Pipeline Tests ===== -->
  <g class="c-teal">
    <rect x="40" y="232" width="290" height="100" rx="10" fill="#E1F5EE" stroke="#0F6E56" stroke-width="0.5"/>
    <text class="th" x="185" y="250" text-anchor="middle" fill="#085041" font-size="13">Task 2: KG 管道测试 (10 用例)</text>

    <text class="ts" x="55" y="270" fill="#0F6E56" font-size="10">· 治疗关系 · 导致关系 · 禁忌关系</text>
    <text class="ts" x="55" y="286" fill="#0F6E56" font-size="10">· 用于关系 · 跨句隔离 · 冲突检测</text>
    <text class="ts" x="55" y="302" fill="#0F6E56" font-size="10">· Pipeline串接 · 空输入 · 复杂文本</text>
    <text class="ts" x="55" y="318" fill="#0F6E56" font-size="10">· 批量输入</text>
  </g>

  <!-- ===== Task 3 Tests ===== -->
  <g class="c-coral">
    <rect x="340" y="232" width="300" height="100" rx="10" fill="#FAECE7" stroke="#D85A30" stroke-width="0.5"/>
    <text class="th" x="490" y="250" text-anchor="middle" fill="#4A1B0C" font-size="13">Task 3: 工具测试 (96 用例)</text>

    <rect x="355" y="260" width="85" height="28" rx="5" fill="#F5C4B3" stroke="#F0997B" stroke-width="0.3"/>
    <text class="ts" x="397" y="274" text-anchor="middle" fill="#712B13" font-size="10">kg_analyze</text>
    <text class="ts" x="397" y="284" text-anchor="middle" fill="#993C1D" font-size="9">15 用例</text>

    <rect x="450" y="260" width="85" height="28" rx="5" fill="#F5C4B3" stroke="#F0997B" stroke-width="0.3"/>
    <text class="ts" x="492" y="274" text-anchor="middle" fill="#712B13" font-size="10">kg_visualize</text>
    <text class="ts" x="492" y="284" text-anchor="middle" fill="#993C1D" font-size="9">46 用例</text>

    <rect x="545" y="260" width="85" height="28" rx="5" fill="#F5C4B3" stroke="#F0997B" stroke-width="0.3"/>
    <text class="ts" x="587" y="274" text-anchor="middle" fill="#712B13" font-size="10">kg_report</text>
    <text class="ts" x="587" y="284" text-anchor="middle" fill="#993C1D" font-size="9">35 用例</text>

    <text class="ts" x="490" y="306" text-anchor="middle" fill="#993C1D" font-size="9">覆盖: 4种分析类型 · 4种图表 · 3种报告模式</text>
    <text class="ts" x="490" y="322" text-anchor="middle" fill="#993C1D" font-size="9">XSS注入防护 · 白名单验证 · 边界数据</text>
  </g>

  <!-- ===== E2E Tests ===== -->
  <g class="c-green">
    <rect x="40" y="342" width="290" height="90" rx="10" fill="#EAF3DE" stroke="#639922" stroke-width="0.5"/>
    <text class="th" x="185" y="360" text-anchor="middle" fill="#27500A" font-size="13">端到端综合测试 (15 场景 · 44/44)</text>

    <text class="ts" x="55" y="380" fill="#3B6D11" font-size="10">· 糖尿病/高血压查询 · 多分析+多图表</text>
    <text class="ts" x="55" y="396" fill="#3B6D11" font-size="10">· 禁忌+药物安全链 · Graph关系图</text>
    <text class="ts" x="55" y="412" fill="#3B6D11" font-size="10">· 边界测试 · 性能测试(100次调用)</text>
    <text class="ts" x="55" y="428" fill="#3B6D11" font-size="10">· XSS注入安全 · 空数据容错</text>
  </g>

  <!-- ===== Benchmark ===== -->
  <g class="c-amber">
    <rect x="340" y="342" width="300" height="90" rx="10" fill="#FAEEDA" stroke="#BA7517" stroke-width="0.5"/>
    <text class="th" x="490" y="360" text-anchor="middle" fill="#633806" font-size="13">性能基准评测</text>

    <text class="ts" x="355" y="380" fill="#854F0B" font-size="10">测试数据: 1000 条医疗文本 · 28 个维度</text>
    <text class="ts" x="355" y="396" fill="#854F0B" font-size="10">评测维度: 35 个 (吞吐/延迟/内存)</text>
    <text class="ts" x="355" y="412" fill="#854F0B" font-size="10">结果: 33.5 μs/条 · 29,648 条/秒</text>
    <text class="ts" x="355" y="428" fill="#854F0B" font-size="10">5 次运行日志 · Markdown 报告自动生成</text>
  </g>

  <!-- ===== Summary ===== -->
  <g class="c-green">
    <rect x="40" y="448" width="600" height="80" rx="10" fill="#EAF3DE" stroke="#639922" stroke-width="0.5"/>
    <text class="th" x="340" y="468" text-anchor="middle" fill="#27500A" font-size="14">测试总结</text>

    <rect x="60" y="480" width="120" height="36" rx="6" fill="#97C459" stroke="#639922" stroke-width="0.3"/>
    <text class="th" x="120" y="495" text-anchor="middle" fill="#173404" font-size="11">ETL: 148</text>
    <text class="ts" x="120" y="509" text-anchor="middle" fill="#27500A" font-size="9">100% 通过</text>

    <rect x="195" y="480" width="120" height="36" rx="6" fill="#97C459" stroke="#639922" stroke-width="0.3"/>
    <text class="th" x="255" y="495" text-anchor="middle" fill="#173404" font-size="11">KG: 10</text>
    <text class="ts" x="255" y="509" text-anchor="middle" fill="#27500A" font-size="9">100% 通过</text>

    <rect x="330" y="480" width="120" height="36" rx="6" fill="#97C459" stroke="#639922" stroke-width="0.3"/>
    <text class="th" x="390" y="495" text-anchor="middle" fill="#173404" font-size="11">Task3: 96</text>
    <text class="ts" x="390" y="509" text-anchor="middle" fill="#27500A" font-size="9">100% 通过</text>

    <rect x="465" y="480" width="155" height="36" rx="6" fill="#97C459" stroke="#639922" stroke-width="0.3"/>
    <text class="th" x="542" y="495" text-anchor="middle" fill="#173404" font-size="11">E2E: 44/44</text>
    <text class="ts" x="542" y="509" text-anchor="middle" fill="#27500A" font-size="9">100% 通过</text>
  </g>

  <!-- Test types legend -->
  <g class="c-gray">
    <rect x="40" y="542" width="600" height="80" rx="10" fill="#F1EFE8" stroke="#B4B2A9" stroke-width="0.5"/>
    <text class="th" x="340" y="560" text-anchor="middle" fill="#444441" font-size="12">测试类型覆盖</text>

    <text class="ts" x="60" y="580" fill="#5F5E5A" font-size="10">单元测试 · 集成测试 · 端到端(E2E) · 性能基准 · 边界测试 · 异常测试 · 安全测试(XSS注入)</text>
    <text class="ts" x="60" y="600" fill="#5F5E5A" font-size="10">测试框架: pytest · markers: unit/integration/e2e/performance/slow · --strict-markers</text>
  </g>

  <!-- Files -->
  <text class="ts" x="340" y="644" text-anchor="middle" fill="#5F5E5A" font-size="10">测试文件位置: tests/ (KG+Task3) · tests/etl/ (ETL算子) · extras/benchmark/ (性能评测)</text>

  <!-- Legend -->
  <g>
    <rect x="100" y="658" width="12" height="10" rx="3" fill="#EEEDFE" stroke="#534AB7" stroke-width="0.5"/>
    <text class="ts" x="118" y="666" fill="#5F5E5A" font-size="10">ETL</text>
    <rect x="175" y="658" width="12" height="10" rx="3" fill="#E1F5EE" stroke="#0F6E56" stroke-width="0.5"/>
    <text class="ts" x="193" y="666" fill="#5F5E5A" font-size="10">KG</text>
    <rect x="240" y="658" width="12" height="10" rx="3" fill="#FAECE7" stroke="#D85A30" stroke-width="0.5"/>
    <text class="ts" x="258" y="666" fill="#5F5E5A" font-size="10">Task3</text>
    <rect x="320" y="658" width="12" height="10" rx="3" fill="#EAF3DE" stroke="#639922" stroke-width="0.5"/>
    <text class="ts" x="338" y="666" fill="#5F5E5A" font-size="10">E2E</text>
    <rect x="395" y="658" width="12" height="10" rx="3" fill="#FAEEDA" stroke="#BA7517" stroke-width="0.5"/>
    <text class="ts" x="413" y="666" fill="#5F5E5A" font-size="10">基准</text>
  </g>
</svg>
